<svg width="24" height="24" viewBox="0 0 24 24" fill="none" xmlns="http://www.w3.org/2000/svg">
<path d="M14.283 3.501L6.51 11.475C6.37348 11.6151 6.29707 11.8029 6.29707 11.9985C6.29707 12.1941 6.37348 12.3819 6.51 12.522L14.283 20.499C14.3466 20.5643 14.4226 20.6162 14.5066 20.6517C14.5906 20.6871 14.6808 20.7054 14.772 20.7054C14.8632 20.7054 14.9534 20.6871 15.0374 20.6517C15.1214 20.6162 15.1974 20.5643 15.261 20.499C15.3918 20.3651 15.4651 20.1852 15.4651 19.998C15.4651 19.8108 15.3918 19.6309 15.261 19.497L7.9515 11.9985L15.261 4.5015C15.3914 4.36763 15.4644 4.18813 15.4644 4.00125C15.4644 3.81437 15.3914 3.63487 15.261 3.501C15.1974 3.43569 15.1214 3.38377 15.0374 3.34833C14.9534 3.31288 14.8632 3.29462 14.772 3.29462C14.6808 3.29462 14.5906 3.31288 14.5066 3.34833C14.4226 3.38377 14.3466 3.43569 14.283 3.501Z" fill="black"/>
</svg>
