<svg width="20" height="20" viewBox="0 0 20 20" fill="none" xmlns="http://www.w3.org/2000/svg">
<path d="M14.001 7.8C13.712 7.8 13.4258 7.85693 13.1587 7.96754C12.8917 8.07815 12.649 8.24028 12.4447 8.44466C12.2403 8.64904 12.0782 8.89167 11.9675 9.15871C11.8569 9.42575 11.8 9.71196 11.8 10.001C11.8 10.29 11.8569 10.5762 11.9675 10.8433C12.0782 11.1103 12.2403 11.353 12.4447 11.5573C12.649 11.7617 12.8917 11.9238 13.1587 12.0345C13.4258 12.1451 13.712 12.202 14.001 12.202C14.5847 12.2019 15.1445 11.9698 15.5572 11.557C15.9699 11.1441 16.2016 10.5842 16.2015 10.0005C16.2014 9.41676 15.9694 8.85698 15.5565 8.4443C15.1436 8.03163 14.5837 7.79987 14 7.8H14.001ZM6.001 7.8C5.71196 7.8 5.42575 7.85693 5.15872 7.96754C4.89168 8.07815 4.64904 8.24028 4.44466 8.44466C4.24028 8.64904 4.07815 8.89167 3.96754 9.15871C3.85693 9.42575 3.8 9.71196 3.8 10.001C3.8 10.29 3.85693 10.5762 3.96754 10.8433C4.07815 11.1103 4.24028 11.353 4.44466 11.5573C4.64904 11.7617 4.89168 11.9238 5.15872 12.0345C5.42575 12.1451 5.71196 12.202 6.001 12.202C6.58474 12.2019 7.14452 11.9698 7.5572 11.557C7.96987 11.1441 8.20164 10.5842 8.2015 10.0005C8.20137 9.41676 7.96935 8.85698 7.55649 8.4443C7.14363 8.03163 6.58474 7.79987 6.001 7.8Z" fill="black"/>
</svg>
