<svg xmlns="http://www.w3.org/2000/svg" xmlns:xlink="http://www.w3.org/1999/xlink" width="205" zoomAndPan="magnify" viewBox="0 0 153.75 323.999988" height="432" preserveAspectRatio="xMidYMid meet" version="1.0"><defs><g/></defs><g fill="#000000" fill-opacity="1"><g transform="translate(52.221798, 197.567153)"><g><path d="M 3.453125 0 L 3.453125 -10.71875 L 19.28125 -10.71875 L 19.28125 -51.53125 L 18.25 -51.796875 C 16.007812 -50.722656 13.804688 -49.867188 11.640625 -49.234375 C 9.472656 -48.609375 7 -48.117188 4.21875 -47.765625 L 4.21875 -58.84375 C 11.476562 -60.363281 17.351562 -62.601562 21.84375 -65.5625 L 32.109375 -65.5625 L 32.109375 -10.71875 L 46.234375 -10.71875 L 46.234375 0 Z M 3.453125 0 "/></g></g></g><path fill="#ab15a1" d="M 135.125 36.234375 C 134.171875 40.890625 131.765625 45.058594 128.449219 48.433594 C 132.101562 44.773438 134.816406 40.167969 135.363281 34.957031 C 135.300781 35.382812 135.210938 35.8125 135.125 36.234375 Z M 135.125 36.234375 " fill-opacity="1" fill-rule="nonzero"/><path fill="#ab15a1" d="M 135.507812 65.902344 C 135.496094 61.886719 135.488281 57.871094 135.480469 53.855469 C 135.472656 52.300781 135.46875 50.746094 135.46875 49.195312 C 135.46875 46.699219 135.46875 44.203125 135.46875 41.707031 C 135.46875 40.460938 135.46875 39.210938 135.46875 37.964844 C 135.46875 37.214844 135.46875 36.46875 135.46875 35.71875 C 135.46875 35.757812 135.539062 33.320312 135.425781 34.589844 C 135.464844 34.457031 135.453125 34.277344 135.46875 34.144531 C 134.425781 34.105469 134.351562 34.144531 134.210938 35.265625 C 134.042969 36.582031 133.726562 37.878906 133.28125 39.128906 C 132.488281 41.347656 131.28125 43.394531 129.820312 45.234375 C 127.003906 48.792969 123.300781 51.554688 119.417969 53.847656 C 115.171875 56.363281 110.609375 58.328125 105.898438 59.789062 C 103.34375 60.582031 100.742188 61.226562 98.117188 61.738281 C 96.722656 62.011719 95.320312 62.238281 93.917969 62.441406 C 93.578125 62.492188 92.816406 62.449219 92.773438 62.96875 C 92.746094 63.304688 92.667969 63.800781 93.09375 63.738281 C 92.160156 64.136719 92.808594 70.3125 92.808594 71.054688 C 92.808594 76.515625 92.808594 81.980469 92.808594 87.441406 C 92.808594 98.5625 92.8125 109.679688 92.8125 120.800781 C 92.8125 121.992188 93.363281 125.335938 91.667969 125.382812 C 87.285156 125.511719 82.945312 125.992188 78.550781 125.921875 C 73.6875 125.847656 68.824219 125.40625 64.035156 124.550781 C 55.8125 123.082031 47.652344 120.433594 40.535156 115.984375 C 37.066406 113.816406 33.75 111.222656 31.15625 108.039062 C 28.421875 104.691406 27.191406 100.910156 26.046875 96.808594 C 26.039062 96.882812 26.023438 96.878906 26.007812 96.796875 C 25.410156 98.851562 24.761719 100.902344 24.3125 102.996094 C 23.726562 105.738281 24.175781 107.472656 25.5625 109.851562 C 25.535156 109.734375 25.546875 109.734375 25.601562 109.84375 C 25.542969 109.515625 25.492188 109.191406 25.453125 108.859375 C 26.097656 112.054688 29.101562 114.789062 31.417969 116.898438 C 33.925781 119.171875 36.746094 121.105469 39.679688 122.78125 C 45.765625 126.261719 52.429688 128.675781 59.265625 130.195312 C 66.566406 131.8125 74.070312 132.429688 81.542969 132.328125 C 85.347656 132.277344 89.152344 132.03125 92.929688 131.558594 C 94.75 131.332031 96.566406 131.050781 98.375 130.714844 C 99.835938 130.441406 102.039062 130.339844 103.230469 129.398438 C 103.171875 129.488281 103.113281 129.582031 103.058594 129.671875 C 104.980469 129.210938 105.496094 128.085938 106.480469 126.496094 C 108.394531 123.410156 110.257812 120.296875 112.003906 117.113281 C 115.398438 110.925781 118.613281 104.570312 121.511719 98.140625 C 123.007812 94.820312 121.582031 91 121.050781 87.570312 C 120.46875 83.753906 120.816406 80.203125 122.492188 76.679688 C 123.976562 73.558594 126.277344 70.710938 129.273438 68.929688 C 130.65625 68.109375 132.167969 67.550781 133.753906 67.28125 C 134.570312 67.144531 135.390625 67.074219 136.210938 67.023438 C 136.976562 66.988281 135.691406 65.839844 135.507812 65.902344 Z M 135.507812 65.902344 " fill-opacity="1" fill-rule="nonzero"/><path fill="#ab15a1" d="M 101.195312 134.605469 C 100.933594 135.019531 97.140625 135.402344 96.585938 135.507812 C 95.726562 135.671875 93.769531 135.589844 93.09375 136.199219 C 92.699219 136.554688 92.585938 137.347656 93.199219 137.261719 C 92.152344 137.683594 92.847656 143.003906 92.847656 143.898438 C 93.109375 143.601562 91.742188 145.265625 93.195312 143.558594 C 92.792969 144.246094 92.792969 145.050781 92.808594 145.824219 C 94.207031 144.117188 95.566406 142.375 96.890625 140.613281 C 97.628906 139.625 98.359375 138.628906 99.074219 137.628906 C 99.449219 137.109375 100.75 134.695312 101.195312 134.605469 C 101.207031 134.589844 101.210938 134.605469 101.195312 134.605469 Z M 101.195312 134.605469 " fill-opacity="1" fill-rule="nonzero"/><path fill="#ab15a1" d="M 141.824219 265.308594 C 141.417969 255.761719 141.015625 246.210938 140.613281 236.660156 C 139.558594 211.796875 138.507812 186.933594 137.457031 162.070312 C 137.0625 152.699219 136.664062 143.328125 136.269531 133.957031 C 136.160156 131.335938 136.046875 128.714844 135.9375 126.09375 C 135.921875 125.722656 135.589844 122.574219 135.75 122.441406 C 135.917969 122.308594 135.726562 121.246094 135.71875 121.007812 C 131.914062 124.277344 127.726562 126.921875 123.117188 128.910156 C 122.410156 129.214844 121.867188 129.347656 121.371094 129.855469 C 120.898438 130.648438 120.449219 131.453125 119.992188 132.253906 C 118.964844 134.070312 118.027344 135.9375 117.109375 137.8125 C 112.945312 146.316406 109.816406 156.925781 101.882812 162.800781 C 92.90625 169.449219 80.476562 168.859375 69.96875 167.390625 C 58.066406 165.726562 47.136719 161.164062 35.921875 157.089844 C 31.550781 155.5 27.164062 153.960938 22.726562 152.554688 C 22.371094 153.601562 23.214844 153.492188 23.777344 154.054688 C 24 154.519531 23.699219 155.9375 23.675781 156.441406 C 23.605469 158.179688 23.535156 159.921875 23.464844 161.660156 C 23.425781 162.582031 23.15625 162.847656 24.050781 163.136719 C 25.246094 163.519531 26.4375 163.921875 27.625 164.328125 C 30.898438 165.449219 34.15625 166.617188 37.410156 167.800781 C 46.4375 171.09375 55.308594 174.734375 64.78125 176.574219 C 73.808594 178.328125 83.804688 179.261719 92.851562 177.152344 C 92.851562 191.925781 92.851562 206.695312 92.851562 221.46875 C 92.851562 245.511719 92.851562 269.558594 92.851562 293.601562 C 92.851562 299.597656 92.851562 305.597656 92.851562 311.597656 C 92.851562 312.859375 92.160156 312.382812 90.71875 312.515625 C 84.746094 313.070312 78.714844 313.132812 72.730469 312.734375 C 62.285156 312.039062 51.859375 309.808594 42.339844 305.363281 C 36.058594 302.429688 29.871094 298.570312 25.351562 293.226562 C 23.523438 291.0625 22 288.628906 20.992188 285.972656 C 20.496094 284.648438 20.125 283.277344 19.902344 281.878906 C 19.800781 281.257812 19.730469 280.632812 19.6875 280.003906 C 19.554688 279.871094 18.769531 279.972656 18.566406 279.964844 C 19.054688 282.320312 18.742188 282.457031 18.582031 280.082031 C 17.355469 288.621094 21.796875 297.488281 27.511719 303.507812 C 34.199219 310.546875 43.085938 315.523438 52.210938 318.640625 C 62.648438 322.207031 73.800781 323.339844 84.785156 322.898438 C 95.960938 322.449219 107.070312 320.117188 117.128906 315.121094 C 124.5625 311.429688 131.742188 306.363281 136.628906 299.550781 C 138.765625 296.574219 140.410156 293.25 141.359375 289.707031 C 142.367188 285.953125 142.355469 282.171875 142.355469 278.324219 C 142.351562 273.996094 142.007812 269.636719 141.824219 265.308594 Z M 141.824219 265.308594 " fill-opacity="1" fill-rule="nonzero"/><path fill="#c4e4f8" d="M 143.230469 68.925781 C 143.199219 68.914062 143.1875 68.90625 143.164062 68.894531 C 143.1875 68.90625 143.214844 68.914062 143.238281 68.925781 C 137.324219 62.632812 127.648438 66.960938 123.367188 72.945312 C 120.855469 76.453125 119.179688 81.066406 119.617188 85.429688 C 119.824219 87.515625 120.21875 89.582031 120.570312 91.648438 C 120.785156 92.917969 121.332031 94.609375 121.121094 95.917969 C 120.917969 97.179688 120.109375 98.46875 119.546875 99.589844 C 118.363281 101.964844 117.226562 104.359375 116.0625 106.742188 C 113.824219 111.34375 111.449219 115.878906 108.886719 120.308594 C 104.164062 128.476562 99.03125 136.734375 92.847656 143.886719 C 92.847656 143.320312 92.847656 142.753906 92.847656 142.1875 C 90.460938 145.050781 86.910156 149.746094 82.859375 150.335938 C 80.921875 150.617188 78.707031 150.195312 76.785156 149.945312 C 73.5625 149.53125 70.367188 148.929688 67.1875 148.261719 C 52.652344 145.214844 38.113281 141.042969 24.519531 135.003906 C 24.5 135.402344 24.484375 135.800781 24.464844 136.199219 C 22.140625 135.179688 19.847656 134.058594 17.628906 132.824219 C 16.714844 132.320312 15.816406 131.789062 14.9375 131.230469 C 13.75 130.476562 13.234375 130.613281 14.160156 129.410156 C 11.976562 127.898438 9.757812 126.226562 8.289062 123.96875 C 7.726562 123.101562 6.734375 121.355469 7.160156 120.265625 C 7.652344 119.003906 8.785156 117.875 9.652344 116.871094 C 12.761719 113.269531 16.171875 109.921875 19.574219 106.601562 C 21.402344 104.816406 24.257812 103.046875 24.964844 100.566406 C 25.3125 99.261719 25.660156 98.136719 26.042969 96.808594 C 26.261719 97.59375 26.484375 98.375 26.703125 99.160156 C 26.582031 95.371094 26.703125 91.582031 26.703125 87.792969 C 25.765625 88.730469 25.589844 88.847656 25.589844 90.164062 C 25.589844 91.101562 23.542969 92.59375 22.84375 93.359375 C 20.277344 96.109375 17.824219 98.972656 15.34375 101.800781 C 9.386719 108.601562 1.394531 115.761719 0.691406 125.355469 C 0.625 126.140625 0.429688 126.503906 1.042969 126.984375 C 0.902344 126.878906 0.753906 126.785156 0.609375 126.679688 C 0.609375 127.492188 0.398438 127.886719 1.089844 128.386719 C 1.574219 128.738281 2.058594 129.085938 2.546875 129.429688 C 3.527344 130.121094 4.515625 130.800781 5.515625 131.46875 C 7.714844 132.9375 9.953125 134.34375 12.222656 135.695312 C 16.742188 138.375 21.394531 140.828125 26.148438 143.0625 C 36.355469 147.871094 47.007812 151.699219 57.863281 154.742188 C 68.074219 157.605469 79.746094 159.976562 90.1875 156.910156 C 94.921875 155.519531 99.128906 152.773438 102.039062 148.75 C 105.0625 144.566406 107.136719 139.464844 109.410156 134.84375 C 112.53125 128.5 115.523438 122.089844 118.449219 115.652344 C 119.914062 112.433594 121.363281 109.203125 122.796875 105.972656 C 124.367188 102.433594 126.28125 98.90625 127.53125 95.25 C 129.65625 89.039062 127.199219 82.320312 130.027344 76.199219 C 131.222656 73.609375 133.523438 71.117188 136.101562 69.855469 C 137.628906 69.105469 139.359375 68.914062 141.011719 69.308594 C 141.359375 69.390625 142.699219 70.027344 142.863281 69.796875 C 143.058594 69.53125 143.5 69.210938 143.230469 68.925781 Z M 143.230469 68.925781 " fill-opacity="1" fill-rule="nonzero"/><path fill="#c4e4f8" d="M 103.144531 129.609375 C 102.625 129.742188 102.105469 129.878906 101.582031 130 C 101.1875 130.613281 100.789062 131.222656 100.386719 131.832031 C 99.628906 132.984375 98.855469 134.125 98.066406 135.253906 C 98.585938 135.148438 99.109375 135.046875 99.628906 134.9375 C 100.832031 133.179688 102 131.402344 103.144531 129.609375 Z M 103.144531 129.609375 " fill-opacity="1" fill-rule="nonzero"/><path fill="#eb59c4" d="M 46.039062 120.207031 C 55.664062 124.695312 66.273438 126.65625 76.835938 127 C 79.734375 127.09375 82.636719 127.074219 85.53125 126.929688 C 86.246094 126.894531 93.957031 126.445312 93.957031 126.113281 C 93.957031 125.445312 93.957031 124.777344 93.957031 124.109375 C 93.957031 119.902344 93.957031 115.699219 93.957031 111.492188 C 93.957031 95.53125 93.957031 79.566406 93.957031 63.605469 C 93.46875 63.679688 92.972656 63.738281 92.480469 63.804688 C 92.753906 63.746094 92.851562 63.585938 92.851562 63.023438 C 92.851562 62.796875 92.917969 62.675781 93.03125 62.605469 C 74.445312 65.257812 52.964844 62.570312 37.464844 51.390625 C 34.304688 49.109375 31.390625 46.378906 29.316406 43.054688 C 28.378906 41.550781 27.625 39.929688 27.121094 38.230469 C 27.039062 37.949219 26.765625 36.394531 26.566406 36.414062 C 25.914062 36.472656 25.589844 36.308594 25.648438 36.84375 C 25.632812 36.761719 25.605469 36.6875 25.589844 36.605469 C 25.589844 54.027344 25.589844 71.449219 25.589844 88.871094 C 25.589844 92.800781 24.933594 97.089844 26.027344 100.875 C 28.65625 110.214844 37.714844 116.332031 46.039062 120.207031 Z M 46.039062 120.207031 " fill-opacity="1" fill-rule="nonzero"/><path fill="#eb59c4" d="M 48.816406 170.839844 C 40.425781 167.691406 31.765625 165.015625 23.460938 161.691406 C 22.765625 178.007812 22.070312 194.320312 21.375 210.632812 C 20.488281 231.476562 19.601562 252.320312 18.710938 273.164062 C 18.621094 275.292969 18.171875 277.941406 18.566406 279.964844 C 19.40625 288.925781 24.957031 295.730469 32.128906 300.777344 C 40.496094 306.664062 50.332031 310.339844 60.328125 312.277344 C 65.773438 313.332031 71.308594 313.882812 76.851562 314.042969 C 78.289062 314.082031 93.960938 314.074219 93.960938 313.277344 C 93.960938 298.542969 93.960938 283.804688 93.960938 269.070312 C 93.960938 244.851562 93.960938 220.632812 93.960938 196.417969 C 93.960938 189.519531 93.960938 182.621094 93.960938 175.71875 C 90.722656 176.621094 87.359375 177.023438 84.003906 177.101562 C 71.988281 177.402344 60.035156 175.109375 48.816406 170.839844 Z M 48.816406 170.839844 " fill-opacity="1" fill-rule="nonzero"/><path fill="#eb59c4" d="M 25.226562 119.589844 C 25.015625 124.261719 24.796875 128.933594 24.582031 133.601562 C 24.558594 134.109375 24.535156 134.617188 24.515625 135.128906 C 24.460938 136.269531 24.464844 136.207031 25.585938 136.691406 C 26.964844 137.285156 28.359375 137.855469 29.757812 138.402344 C 35.386719 140.609375 41.136719 142.535156 46.925781 144.273438 C 57.46875 147.4375 68.554688 150.480469 79.566406 151.359375 C 83.316406 151.660156 85.722656 150.792969 88.589844 148.28125 C 90.554688 146.5625 92.304688 144.601562 93.960938 142.589844 C 94.253906 141.628906 93.960938 140.128906 93.960938 139.128906 C 93.960938 138.464844 93.960938 137.800781 93.960938 137.136719 C 93.46875 137.203125 92.976562 137.253906 92.484375 137.3125 C 92.800781 137.222656 92.851562 137.015625 92.851562 136.300781 C 92.851562 136.203125 92.980469 136.152344 93.136719 136.121094 C 79.921875 137.828125 65.917969 137.082031 53.253906 132.808594 C 47.246094 130.78125 41.375 127.914062 36.347656 124.023438 C 33.941406 122.15625 31.726562 120.003906 29.980469 117.496094 C 29.207031 116.382812 28.53125 115.203125 27.980469 113.964844 C 27.324219 112.484375 26.410156 111.292969 25.585938 109.890625 C 25.609375 110.054688 25.648438 110.230469 25.683594 110.40625 C 25.652344 110.273438 25.613281 110.144531 25.589844 110.015625 C 25.585938 110.054688 25.585938 110.09375 25.585938 110.132812 C 25.5625 109.992188 25.527344 109.894531 25.453125 109.902344 C 24.824219 109.949219 24.488281 109.765625 24.464844 110.398438 C 24.351562 113.476562 24.257812 116.558594 24.117188 119.636719 C 24.503906 119.273438 24.894531 118.90625 25.277344 118.539062 C 25.261719 118.890625 25.242188 119.238281 25.226562 119.589844 Z M 25.226562 119.589844 " fill-opacity="1" fill-rule="nonzero"/><path fill="#ff80c5" d="M 136.445312 111.761719 C 133.292969 113.078125 130.621094 114.707031 128.429688 117.402344 C 125.441406 121.066406 123.613281 125.851562 121.300781 129.972656 C 121.722656 129.289062 122.441406 129.199219 123.183594 128.875 C 122.894531 129.398438 122.605469 129.917969 122.316406 130.4375 C 125.378906 129.253906 128.316406 127.753906 131.066406 125.957031 C 132.34375 125.117188 133.578125 124.21875 134.765625 123.261719 C 135.828125 122.402344 135.769531 122.285156 135.71875 121.007812 C 135.613281 118.472656 135.507812 115.9375 135.402344 113.402344 C 136.253906 113.054688 136.496094 112.992188 136.445312 111.761719 Z M 136.445312 111.761719 " fill-opacity="1" fill-rule="nonzero"/><path fill="#ff80c5" d="M 69.585938 130.683594 C 59.332031 129.65625 49.191406 126.898438 40.214844 121.75 C 40.1875 121.730469 40.15625 121.714844 40.128906 121.699219 C 34.0625 118.203125 28.105469 113.484375 25.28125 106.882812 C 25.28125 107.820312 25.347656 108.734375 25.476562 109.621094 C 25.242188 108.882812 24.546875 107.996094 24.261719 107.324219 C 24.203125 107.351562 24.15625 106.878906 24.136719 106.65625 C 24.148438 106.820312 24.171875 107.179688 24.210938 107.875 C 24.253906 108.605469 24.34375 109.335938 24.480469 110.058594 C 24.710938 109.9375 25.164062 109.921875 25.523438 109.898438 C 27.675781 123.347656 43.9375 131.300781 55.597656 134.722656 C 63.867188 137.152344 72.523438 138.066406 81.121094 138.011719 C 85.855469 137.980469 90.648438 137.722656 95.320312 136.914062 C 96.457031 136.714844 97.589844 136.5 98.71875 136.261719 C 99.332031 135.382812 99.9375 134.496094 100.539062 133.605469 C 101.726562 131.835938 102.820312 129.992188 104.039062 128.242188 C 92.902344 131.234375 81.03125 131.832031 69.585938 130.683594 Z M 69.585938 130.683594 " fill-opacity="1" fill-rule="nonzero"/><path fill="#ff80c5" d="M 38.457031 53.417969 C 47.5625 59.410156 58.242188 62.640625 69.003906 63.882812 C 80.589844 65.21875 92.742188 64.640625 104.011719 61.546875 C 116.882812 58.011719 134.445312 49.523438 135.464844 34.222656 C 136.257812 24.925781 130.042969 17.441406 122.765625 12.527344 C 114.214844 6.75 104.164062 3.472656 94.003906 2.050781 C 82.921875 0.507812 71.355469 0.800781 60.421875 3.230469 C 50.691406 5.394531 40.652344 9.480469 33.214844 16.285156 C 30.070312 19.160156 27.453125 22.679688 26.167969 26.777344 C 25.34375 29.402344 25.59375 32.078125 25.59375 34.800781 C 25.59375 42.835938 32.191406 49.292969 38.457031 53.417969 Z M 38.457031 53.417969 " fill-opacity="1" fill-rule="nonzero"/><path fill="#83b8ed" d="M 11.347656 128.753906 C 11.238281 128.730469 11.714844 129.101562 13.507812 130.3125 C 15.542969 127.210938 18.527344 124.707031 21.257812 122.246094 C 22.613281 121.027344 23.96875 119.804688 25.277344 118.539062 C 25.480469 118.082031 25.328125 117.15625 25.347656 116.667969 C 25.425781 114.515625 25.5 112.367188 25.578125 110.21875 C 25.636719 108.714844 25.234375 107.164062 25.285156 105.621094 C 25.324219 104.472656 25.460938 103.328125 25.699219 102.203125 C 25.960938 100.960938 25.855469 100.351562 25.585938 99.121094 C 19.921875 105.210938 13.421875 110.511719 8.125 116.960938 C 7.105469 118.199219 5.828125 119.519531 6.046875 121.222656 C 6.449219 124.332031 8.84375 126.816406 11.347656 128.753906 Z M 11.347656 128.753906 " fill-opacity="1" fill-rule="nonzero"/><path fill="#83b8ed" d="M 147.660156 76.578125 C 147.988281 77.46875 149.261719 80.839844 147.613281 76.445312 C 147.582031 76.371094 147.582031 76.371094 147.59375 76.398438 C 146.730469 74.160156 145.65625 71.945312 144.171875 70.042969 C 142.609375 68.042969 139.828125 67.644531 137.414062 68.210938 C 132.625 69.339844 129.070312 74.222656 127.972656 78.789062 C 126.707031 84.070312 128.25 89.550781 126.539062 94.703125 C 125.621094 97.46875 124.175781 100.097656 122.996094 102.765625 C 121.730469 105.632812 120.453125 108.496094 119.167969 111.355469 C 114.535156 121.652344 109.765625 131.882812 104.605469 141.925781 C 102.28125 146.4375 99.945312 150.597656 95.511719 153.359375 C 92.140625 155.464844 88.21875 156.511719 84.292969 156.925781 C 77.230469 157.675781 70.03125 156.578125 63.164062 154.96875 C 55.226562 153.105469 47.402344 150.546875 39.78125 147.65625 C 25.898438 142.386719 12.558594 135.527344 0.609375 126.675781 C 0.609375 131.039062 0.046875 136.378906 1.6875 140.519531 C 3.058594 143.988281 6.289062 145.4375 9.363281 146.988281 C 13.648438 149.148438 18.015625 151.125 22.316406 153.25 C 25.222656 154.710938 28.402344 155.582031 31.484375 156.671875 C 42.203125 160.480469 52.714844 165.164062 63.894531 167.472656 C 74.597656 169.683594 87.5 171.117188 97.773438 166.488281 C 105.949219 162.804688 110.019531 155.546875 113.660156 147.777344 C 115.726562 143.363281 117.699219 138.902344 119.980469 134.589844 C 122.195312 130.394531 124.605469 126.308594 126.785156 122.089844 C 129.007812 117.785156 131.984375 114.777344 136.492188 112.964844 C 140.292969 111.445312 143.472656 109.878906 146.101562 106.605469 C 152.796875 98.277344 151.140625 85.9375 147.660156 76.578125 Z M 147.660156 76.578125 " fill-opacity="1" fill-rule="nonzero"/></svg>